<?xml version="1.0" encoding="UTF-8" standalone="no"?>
<svg
   xmlns:dc="http://purl.org/dc/elements/1.1/"
   xmlns:cc="http://creativecommons.org/ns#"
   xmlns:rdf="http://www.w3.org/1999/02/22-rdf-syntax-ns#"
   xmlns:svg="http://www.w3.org/2000/svg"
   xmlns="http://www.w3.org/2000/svg"
   xmlns:sodipodi="http://sodipodi.sourceforge.net/DTD/sodipodi-0.dtd"
   xmlns:inkscape="http://www.inkscape.org/namespaces/inkscape"
   width="100mm"
   height="100mm"
   viewBox="0 0 100 100"
   version="1.1"
   id="svg8"
   inkscape:version="1.0.2 (e86c8708, 2021-01-15)"
   sodipodi:docname="a_med.svg">
  <defs
     id="defs2" />
  <sodipodi:namedview
     id="base"
     pagecolor="#ffffff"
     bordercolor="#666666"
     borderopacity="1.0"
     inkscape:pageopacity="0.0"
     inkscape:pageshadow="2"
     inkscape:zoom="0.98994949"
     inkscape:cx="139.25193"
     inkscape:cy="246.98652"
     inkscape:document-units="mm"
     inkscape:current-layer="layer1"
     inkscape:document-rotation="0"
     showgrid="false"
     fit-margin-top="0"
     fit-margin-left="0"
     fit-margin-right="0"
     fit-margin-bottom="0"
     showguides="true"
     inkscape:guide-bbox="true"
     inkscape:window-width="1405"
     inkscape:window-height="756"
     inkscape:window-x="0"
     inkscape:window-y="23"
     inkscape:window-maximized="0">
    <sodipodi:guide
       position="55.592061,49.753328"
       orientation="0,-1"
       id="guide839" />
    <sodipodi:guide
       position="49.979401,41.735243"
       orientation="1,0"
       id="guide841" />
  </sodipodi:namedview>
  <metadata
     id="metadata5">
    <rdf:RDF>
      <cc:Work
         rdf:about="">
        <dc:format>image/svg+xml</dc:format>
        <dc:type
           rdf:resource="http://purl.org/dc/dcmitype/StillImage" />
        <dc:title />
      </cc:Work>
    </rdf:RDF>
  </metadata>
  <g
     inkscape:label="Layer 1"
     inkscape:groupmode="layer"
     id="layer1"
     transform="translate(-6.0476193,-20.410715)">
    <g
       aria-label="A"
       id="text853"
       style="font-style:normal;font-variant:normal;font-weight:normal;font-stretch:normal;font-size:86.48080000000000211px;line-height:1.25;font-family:Mshtakan;-inkscape-font-specification:Mshtakan;fill:#000000;fill-opacity:1;stroke:none;stroke-width:2.16203">
      <path
         d="m 23.808329,101.6544 v -2.871429 q 3.335929,-0.04223 4.138241,-0.253362 0.844539,-0.253361 1.52017,-0.886766 0.717858,-0.675631 2.026894,-3.420383 0.760085,-1.562397 5.489503,-11.865773 L 47.539875,58.540686 Q 49.27118,54.61358 54.929592,41.058728 h 2.744752 l 18.030908,42.353633 q 4.391603,10.303376 5.827319,12.921447 0.802312,1.477943 1.731305,1.94244 0.97122,0.464496 4.307149,0.506723 v 2.871429 q -6.587404,-0.42227 -9.205475,-0.42227 l -13.597078,0.42227 v -2.871429 q 4.729418,-0.08445 5.742865,-0.295589 1.013447,-0.211134 1.351262,-0.591177 0.380043,-0.42227 0.380043,-1.013447 0,-0.928993 -0.591177,-2.406936 L 66.45755,81.554375 H 42.008145 l -4.602738,10.852326 q -1.224582,2.91366 -1.224582,4.264922 0,0.591178 0.337816,0.97122 0.464496,0.548951 1.435716,0.760085 1.562397,0.337816 5.489504,0.380043 v 2.871429 q -7.136355,-0.38004 -10.683419,-0.38004 -4.096014,0 -8.952113,0.38004 z M 43.443861,77.965084 H 64.768472 L 54.211734,52.502232 Z"
         style="font-style:normal;font-variant:normal;font-weight:normal;font-stretch:normal;font-family:Palatino;-inkscape-font-specification:Palatino;fill:#000000;stroke-width:2.16203"
         id="path850" />
    </g>
  </g>
</svg>
