<?xml version="1.0" encoding="UTF-8" standalone="no"?>
<svg
   xmlns:dc="http://purl.org/dc/elements/1.1/"
   xmlns:cc="http://creativecommons.org/ns#"
   xmlns:rdf="http://www.w3.org/1999/02/22-rdf-syntax-ns#"
   xmlns:svg="http://www.w3.org/2000/svg"
   xmlns="http://www.w3.org/2000/svg"
   xmlns:xlink="http://www.w3.org/1999/xlink"
   xmlns:sodipodi="http://sodipodi.sourceforge.net/DTD/sodipodi-0.dtd"
   xmlns:inkscape="http://www.inkscape.org/namespaces/inkscape"
   version="1.1"
   id="svg833"
   width="1100"
   height="1100"
   viewBox="0 0 1100 1100.0001"
   sodipodi:docname="honeybee.svg"
   inkscape:version="1.0.2 (e86c8708, 2021-01-15)">
  <metadata
     id="metadata839">
    <rdf:RDF>
      <cc:Work
         rdf:about="">
        <dc:format>image/svg+xml</dc:format>
        <dc:type
           rdf:resource="http://purl.org/dc/dcmitype/StillImage" />
        <dc:title></dc:title>
      </cc:Work>
    </rdf:RDF>
  </metadata>
  <defs
     id="defs837">
    <linearGradient
       inkscape:collect="always"
       id="linearGradient1087">
      <stop
         style="stop-color:#000000;stop-opacity:1;"
         offset="0"
         id="stop1083" />
      <stop
         style="stop-color:#ffef9d;stop-opacity:1"
         offset="1"
         id="stop1085" />
    </linearGradient>
    <linearGradient
       inkscape:collect="always"
       id="linearGradient990">
      <stop
         style="stop-color:#fbf1a5;stop-opacity:1"
         offset="0"
         id="stop986" />
      <stop
         style="stop-color:#f5c764;stop-opacity:1"
         offset="1"
         id="stop988" />
    </linearGradient>
    <linearGradient
       inkscape:collect="always"
       id="linearGradient978">
      <stop
         style="stop-color:#000000;stop-opacity:1;"
         offset="0"
         id="stop974" />
      <stop
         style="stop-color:#7d7d7d;stop-opacity:1"
         offset="1"
         id="stop976" />
    </linearGradient>
    <linearGradient
       inkscape:collect="always"
       id="linearGradient956">
      <stop
         style="stop-color:#000000;stop-opacity:1"
         offset="0"
         id="stop952" />
      <stop
         style="stop-color:#f3d118;stop-opacity:0"
         offset="1"
         id="stop954" />
    </linearGradient>
    <linearGradient
       inkscape:collect="always"
       id="linearGradient887">
      <stop
         style="stop-color:#000000;stop-opacity:1;"
         offset="0"
         id="stop883" />
      <stop
         style="stop-color:#ffef9d;stop-opacity:1"
         offset="1"
         id="stop885" />
    </linearGradient>
    <linearGradient
       inkscape:collect="always"
       id="linearGradient859">
      <stop
         style="stop-color:#3e3e3e;stop-opacity:1"
         offset="0"
         id="stop855" />
      <stop
         style="stop-color:#f9f6b8;stop-opacity:1"
         offset="1"
         id="stop857" />
    </linearGradient>
    <linearGradient
       inkscape:collect="always"
       xlink:href="#linearGradient859"
       id="linearGradient861"
       x1="650.50195"
       y1="696.84149"
       x2="650.50195"
       y2="632.95618"
       gradientUnits="userSpaceOnUse" />
    <radialGradient
       inkscape:collect="always"
       xlink:href="#linearGradient1087"
       id="radialGradient871"
       cx="650.50189"
       cy="803.74579"
       fx="650.50189"
       fy="803.74579"
       r="53.575188"
       gradientTransform="matrix(1.5688271,2.1896297e-7,-1.9440965e-7,1.7540169,-370.02298,-605.21064)"
       gradientUnits="userSpaceOnUse" />
    <radialGradient
       inkscape:collect="always"
       xlink:href="#linearGradient887"
       id="radialGradient881"
       gradientUnits="userSpaceOnUse"
       gradientTransform="matrix(1.5688271,2.1896297e-7,-1.9440965e-7,1.7540169,-370.02298,-605.21064)"
       cx="650.50189"
       cy="803.74579"
       fx="650.50189"
       fy="803.74579"
       r="53.575188" />
    <linearGradient
       inkscape:collect="always"
       xlink:href="#linearGradient956"
       id="linearGradient958"
       x1="364.63867"
       y1="756.79492"
       x2="281.09924"
       y2="905.80713"
       gradientUnits="userSpaceOnUse" />
    <linearGradient
       inkscape:collect="always"
       xlink:href="#linearGradient978"
       id="linearGradient982"
       gradientUnits="userSpaceOnUse"
       x1="408.59344"
       y1="713.70892"
       x2="485.79153"
       y2="806.17767" />
    <linearGradient
       inkscape:collect="always"
       xlink:href="#linearGradient990"
       id="linearGradient992"
       x1="650.50195"
       y1="894.39453"
       x2="650.50195"
       y2="1100.424"
       gradientUnits="userSpaceOnUse" />
    <linearGradient
       inkscape:collect="always"
       xlink:href="#linearGradient956"
       id="linearGradient1077"
       gradientUnits="userSpaceOnUse"
       x1="364.63867"
       y1="756.79492"
       x2="281.09924"
       y2="905.80713"
       gradientTransform="matrix(-1,0,0,1,1300.845,0)" />
    <linearGradient
       inkscape:collect="always"
       xlink:href="#linearGradient978"
       id="linearGradient1081"
       gradientUnits="userSpaceOnUse"
       x1="408.59344"
       y1="713.70892"
       x2="485.79153"
       y2="806.17767"
       gradientTransform="matrix(-1,0,0,1,1302.7426,0)" />
  </defs>
  <sodipodi:namedview
     pagecolor="#ffffff"
     bordercolor="#666666"
     borderopacity="1"
     objecttolerance="10"
     gridtolerance="10"
     guidetolerance="10"
     inkscape:pageopacity="0"
     inkscape:pageshadow="2"
     inkscape:window-width="1440"
     inkscape:window-height="796"
     id="namedview835"
     showgrid="false"
     showguides="true"
     inkscape:guide-bbox="true"
     inkscape:zoom="0.1798611"
     inkscape:cx="518.13703"
     inkscape:cy="850.97793"
     inkscape:window-x="0"
     inkscape:window-y="23"
     inkscape:window-maximized="0"
     inkscape:current-layer="g841"
     fit-margin-top="0"
     fit-margin-left="0"
     fit-margin-right="0"
     fit-margin-bottom="0">
    <sodipodi:guide
       position="547.78354,793.26725"
       orientation="1,0"
       id="guide847" />
  </sodipodi:namedview>
  <g
     inkscape:groupmode="layer"
     inkscape:label="Image"
     id="g841"
     transform="translate(-102.71844,-361.83865)">
    <g
       id="g1105"
       transform="translate(2.2959247,3.7702892)">
      <path
         id="path853"
         style="fill:url(#linearGradient861);fill-opacity:1;stroke:none;stroke-width:1px;stroke-linecap:butt;stroke-linejoin:miter;stroke-opacity:1"
         d="m 648.80273,585.7793 v 0.0684 c -12.3411,0.8242 -17.37372,9.32132 -24.20117,14.67382 -7.68172,6.02223 -5.4807,3.64242 -18.42773,7.61719 -6.08933,1.86944 -14.38167,5.80117 -18.42969,9.33789 -19.8698,17.36008 -21.89765,27.12189 -22.84961,43.73633 -0.72937,12.72954 2.72581,30.31702 18.91992,37.10352 10.82614,4.53693 22.00227,5.23816 33.41602,4.91406 11.41874,-0.32424 22.55673,-6.01435 32.42187,-6.35547 9.86515,0.34112 21.00313,6.03123 32.42188,6.35547 11.41375,0.3241 22.59183,-0.37713 33.41797,-4.91406 16.19411,-6.7865 19.64929,-24.37398 18.91992,-37.10352 -0.95196,-16.61444 -2.98176,-26.37625 -22.85156,-43.73633 -4.04802,-3.53672 -12.33841,-7.46845 -18.42774,-9.33789 -12.94703,-3.97477 -10.74796,-1.59496 -18.42969,-7.61719 -6.82781,-5.35279 -11.85864,-13.85039 -24.20117,-14.67382 v -0.0684 c -0.28885,0.003 -0.56827,0.0149 -0.84961,0.0254 -0.28091,-0.0104 -0.56121,-0.0229 -0.84961,-0.0254 z" />
      <path
         style="fill:#000000;fill-opacity:1;stroke:none;stroke-width:1px;stroke-linecap:butt;stroke-linejoin:miter;stroke-opacity:1"
         d="m 626.70399,594.29284 c -7.86525,-0.45022 -11.76664,-1.75879 -19.69795,-4.37345 -3.74358,-1.23412 -5.26299,-3.33887 -6.86549,-6.50053 -12.56944,-24.79903 -38.58445,-48.00561 -55.27566,-73.30301 -9.73836,-14.75958 -20.92538,-12.62841 -30.57915,-15.98455 -6.44867,-2.24189 -7.11505,2.96847 -2.77993,4.86486 9.97477,4.36344 23.65784,4.62899 28.37497,14.10317 13.63744,27.39026 37.83617,47.19332 55.63338,76.93931 4.81426,8.04648 15.8067,12.02976 27.71492,15.37389 13.93875,3.91434 13.11792,-10.56771 3.47491,-11.11969 z"
         id="path849"
         sodipodi:nodetypes="ssssssssss" />
      <path
         style="fill:#000000;fill-opacity:1;stroke:none;stroke-width:1px;stroke-linecap:butt;stroke-linejoin:miter;stroke-opacity:0.950292"
         d="m 598.03092,661.27416 c 9.50014,15.43764 -2.38966,26.79747 -16.33205,25.3668 -10.57851,-1.08549 -17.44202,-8.66908 -19.45946,-19.45946 -2.64262,-14.13414 2.32088,-24.86555 7.64478,-34.05406 4.58426,-7.91197 15.49225,-14.17126 15.98456,-1.73745 1.01441,25.61992 6.99515,21.48782 12.16217,29.88417 z"
         id="path851"
         sodipodi:nodetypes="ssssss" />
      <path
         style="fill:#000000;fill-opacity:1;stroke:#000000;stroke-width:1px;stroke-linecap:butt;stroke-linejoin:miter;stroke-opacity:1"
         d="m 626.56762,713.54994 c -24.39234,-7.14707 -48.17469,-11.85414 -71.25671,-13.75991 -3.11236,-11.4666 -32.56977,-81.14823 -51.59968,-80.59379 1.31792,-9.32159 -3.22566,-14.12377 -11.79422,-18.18275 3.06023,-2.98454 2.34063,-8.97428 -2.45713,-13.26849 -0.43882,11.80975 -5.96588,12.90377 -14.25134,14.25134 3.50555,4.48817 6.54745,7.39097 13.26849,6.38853 1.63809,9.54169 7.20757,10.07065 10.81136,14.25134 5.81523,12.40851 8.26219,23.13289 8.84566,32.92552 7.60576,37.83825 23.05586,42.73024 36.85692,54.54824 15.79351,32.65393 67.59258,21.53646 80.5938,17.19989 z"
         id="path907"
         sodipodi:nodetypes="cccccccccccc" />
      <path
         style="fill:url(#linearGradient982);fill-opacity:1;stroke:none;stroke-width:1px;stroke-linecap:butt;stroke-linejoin:miter;stroke-opacity:1"
         d="m 589.34365,851.35139 c -19.18074,-24.96501 -36.07317,-24.75858 -53.51351,-30.57915 -20.83771,-13.54535 -40.44665,-28.81099 -70.19305,-29.88417 -19.72852,-16.80657 -9.67188,-41.92046 -32.6641,-54.2085 0.10107,-7.41313 -0.84679,-14.82625 -6.25482,-22.23938 7.70953,22.46415 -7.11972,25.38503 -18.0695,25.0193 5.78498,3.51404 12.05289,4.13052 18.76448,2.08494 9.04454,8.55184 7.45077,30.73551 18.06949,43.78379 -4.94585,25.83577 11.77559,19.17061 20.15445,25.01931 20.1627,22.43799 46.0404,22.01601 69.49807,31.27413 15.86074,38.30379 34.17957,52.02667 55.59846,34.74903 2.32053,-6.01989 6.88099,-10.17317 -1.38997,-25.0193 z"
         id="path972"
         sodipodi:nodetypes="cccccccccccc" />
      <path
         style="fill:#000000;fill-opacity:1;stroke:#000000;stroke-width:1px;stroke-linecap:butt;stroke-linejoin:miter;stroke-opacity:1"
         d="m 674.82199,713.54994 c 24.39234,-7.14707 48.17469,-11.85414 71.25671,-13.75991 3.11236,-11.4666 32.56977,-81.14823 51.59968,-80.59379 -1.31792,-9.32159 3.22566,-14.12377 11.79422,-18.18275 -3.06023,-2.98454 -2.34063,-8.97428 2.45713,-13.26849 0.43882,11.80975 5.96588,12.90377 14.25134,14.25134 -3.50555,4.48817 -6.54745,7.39097 -13.26849,6.38853 -1.63809,9.54169 -7.20757,10.07065 -10.81136,14.25134 -5.81523,12.40851 -8.26219,23.13289 -8.84566,32.92552 -7.60576,37.83825 -23.05586,42.73024 -36.85692,54.54824 -15.79351,32.65393 -67.59258,21.53646 -80.5938,17.19989 z"
         id="path1073"
         sodipodi:nodetypes="cccccccccccc" />
      <path
         style="fill:url(#linearGradient1081);fill-opacity:1;stroke:none;stroke-width:1px;stroke-linecap:butt;stroke-linejoin:miter;stroke-opacity:1"
         d="m 713.39896,851.35139 c 19.18074,-24.96501 36.07317,-24.75858 53.51351,-30.57915 20.83771,-13.54535 40.44665,-28.81099 70.19305,-29.88417 19.72852,-16.80657 9.67188,-41.92046 32.6641,-54.2085 -0.10107,-7.41313 0.84679,-14.82625 6.25482,-22.23938 -7.70953,22.46415 7.11972,25.38503 18.0695,25.0193 -5.78498,3.51404 -12.05289,4.13052 -18.76448,2.08494 -9.04454,8.55184 -7.45077,30.73551 -18.06949,43.78379 4.94585,25.83577 -11.77559,19.17061 -20.15445,25.01931 -20.1627,22.43799 -46.0404,22.01601 -69.49807,31.27413 -15.86074,38.30379 -34.17957,52.02667 -55.59846,34.74903 -2.32053,-6.01989 -6.88099,-10.17317 1.38997,-25.0193 z"
         id="path1079"
         sodipodi:nodetypes="cccccccccccc" />
      <path
         id="path863"
         style="fill:url(#radialGradient881);fill-opacity:1;stroke:url(#radialGradient871);stroke-width:1px;stroke-linecap:butt;stroke-linejoin:miter;stroke-opacity:1"
         d="m 643.90625,710.59961 c -66.96738,0.81604 -97.4159,27.29228 -99.40625,80.5957 -3.68055,98.56835 61.91481,105.02439 105.92578,103.20117 44.01098,1.82349 109.60834,-4.63139 105.92774,-103.20117 -2.0531,-54.98368 -34.39011,-81.41947 -105.85157,-80.59375 -0.051,-6.1e-4 -0.0994,5.9e-4 -0.15039,0 -2.1838,-0.0252 -4.33433,-0.0277 -6.44531,-0.002 z" />
      <path
         style="fill:#000000;fill-opacity:1;stroke:none;stroke-width:1px;stroke-linecap:butt;stroke-linejoin:miter;stroke-opacity:1"
         d="m 678.2359,914.05159 c 26.45089,-2.79384 43.52768,-0.80498 107.13078,17.69132 3.52175,1.02415 7.0946,2.7031 8.84566,6.87995 20.13979,48.0399 30.93017,90.65954 33.90836,100.74224 7.77109,26.309 -4.4729,15.0816 -8.35423,16.2171 19.02733,43.5323 11.72483,76.6632 2.94855,70.7652 9.35337,35.6908 -0.95221,54.8935 -6.87996,53.074 -7.85297,6.8111 -14.00212,1.6954 -20.63987,0 6.8526,-0.027 14.83823,1.0783 16.70847,-3.9314 -3.38374,-18.062 8.22525,-30.0285 4.91425,-48.1597 -27.40532,-58.746 -28.36137,-75.864 -25.55413,-99.7594 1.80312,-15.3482 3.33281,-24.6649 2.45714,-30.4684 -2.01189,-13.33385 -5.00238,-28.70173 -10.31994,-44.71972 -8.01205,9.34155 -38.38153,-25.85385 -107.13078,-30.46839 -4.26561,-0.28631 -7.69618,-3.90072 -2.94856,-6.87995 2.14834,-1.34813 3.35778,-0.81845 4.91426,-0.98285 z"
         id="path1053"
         sodipodi:nodetypes="ssssccccccsscsss" />
      <path
         id="path909"
         style="fill:url(#linearGradient958);fill-opacity:1;stroke:none;stroke-width:1px;stroke-linecap:butt;stroke-linejoin:miter;stroke-opacity:1"
         d="m 229.44531,711.41992 c -23.39175,-0.0983 -46.9556,3.49 -67.27539,13.92383 -19.37269,9.94751 -44.74687,22.94573 -10.81054,66.83398 13.96819,18.06442 28.45528,35.201 51.10742,50.125 21.7841,14.3521 43.5272,27.6126 74.69726,22.60547 10.15423,24.01926 28.67787,46.12575 80.59375,50.12696 29.83493,2.29941 57.39905,-5.92062 74.69727,-18.67578 53.51227,5.74075 134.23981,-60.10295 133.66797,-99.26758 -0.14149,-9.69044 -2.47419,-17.41625 -6.88086,-27.02735 -1.98269,-4.32431 -6.52823,-4.67942 -10.81055,-4.91406 -64.3623,-3.52664 -132.76444,-15.5247 -236.86719,-41.77148 -22.2517,-5.61019 -52.04402,-11.83255 -82.11914,-11.95899 z m -0.084,2.96485 c 23.94695,-0.0505 49.54044,3.66413 77.77929,10.95898 9.22551,2.3832 13.31716,7.24891 3.43946,10.32031 -4.51262,1.40318 -10.04369,2.88002 -16.46094,2.70313 -10.73338,-0.29587 -21.88787,-0.96303 -33.91016,-0.49219 -4.01095,0.15708 -7.90329,-0.72077 -12.53125,-1.71875 -3.50546,-0.75592 -33.81066,-2.0033 -51.84375,-0.49219 -11.5609,0.96876 -15.94421,3.63129 -21.86914,2.21094 -4.35254,-1.04341 -9.3055,-6.42547 -1.96679,-11.05664 11.6947,-7.38005 27.08732,-10.71583 41.03515,-11.79492 5.363,-0.41491 10.80191,-0.62702 16.32813,-0.63867 z m 94.49609,17.30859 c 1.02785,-8.2e-4 2.17005,0.1637 3.43164,0.53125 7.58829,1.0358 21.76336,3.88436 22.60547,11.30273 6.18566,5.24187 11.28082,9.00856 14.74414,13.26758 -5.73052,-0.52713 -11.7681,-1.84761 -26.29297,-0.49023 -3.9314,-0.13948 -7.86157,0.66732 -11.79297,-3.19531 -2.38197,-3.39356 -3.86861,-6.42819 -9.33789,-11.05665 -2.15206,-2.30626 -0.55234,-10.35362 6.64258,-10.35937 z m 31.93555,7.90234 c 49.86175,12.80619 101.72685,25.02784 173.47265,31.45118 2.74178,1.63808 2.81787,3.27597 0,4.91406 -29.63938,6.91475 -61.48526,6.10596 -92.8789,6.88086 -9.99232,-0.57696 -19.9862,-0.32744 -29.97852,-4.42383 -25.28801,-9.06269 -38.01012,-20.63786 -49.63281,-32.43359 -6.80547,-4.621 -6.20844,-6.39468 -0.98242,-6.38868 z m -82.14453,0.0176 c 7.60302,-0.0723 14.54324,1.08864 20.67578,1.93164 -11.60124,3.45102 -27.69268,13.29574 -43.7832,29.53711 -5.12959,5.17766 -13.05689,4.47523 -20.50196,5.21094 -8.06274,0.79675 -12.21988,-2.32014 -7.64453,-9.19531 6.1834,-9.29149 13.33448,-12.29878 20.12891,-17.60352 5.78059,-4.51318 14.23025,-8.13524 23.30664,-9.33984 2.67634,-0.3552 5.28402,-0.51692 7.81836,-0.54102 z m 34.91406,1.2207 c 2.77656,-2.6e-4 4.63544,0.63546 5.91602,1.75196 4.69737,4.09548 10.08245,9.20311 12.85742,14.94336 2.69884,5.58278 -9.09681,8.17021 -16.67969,7.99218 -16.48458,-0.38703 -27.51635,0.0557 -40.30859,2.08399 -10.64164,1.6873 -11.23192,-2.05425 -5.21289,-6.94922 8.73018,-7.0998 18.71195,-13.42234 27.45117,-16.33203 7.31964,-2.43705 12.4067,-3.4899 15.97656,-3.49024 z m 21.55273,17.39063 c 12.75122,0.60049 33.65153,-0.88138 38.91993,3.12695 20.2511,15.40756 31.67827,17.25747 46.5625,22.23828 -7.60493,4.41242 -53.40247,-2.25415 -79.92188,1.73828 -5.40653,0.17545 -9.99886,-0.87104 -13.55273,-3.4746 -3.4749,-2.54827 -4.74924,-8.68658 -4.51758,-14.94141 8.76168,-0.18578 12.49776,-5.60111 12.50976,-8.6875 z m -70.15039,6.06445 c -2.46063,9.28769 17.19129,2.71395 27.00586,2.46094 10.2704,-0.26476 20.32879,-0.22426 29.16016,0.16211 -1.01836,17.88316 10.05538,19.80672 19.02148,20.10547 -6.89167,4.38178 -6.39876,8.34395 -5.40625,22.11523 -21.11367,0.7107 -41.07851,-0.30035 -63.39257,2.21094 -5.00288,0.56304 -9.80524,2.51713 -16.21875,-3.68555 -7.09056,-6.85748 -12.3809,-13.42114 -17.44532,-24.8164 -1.3936,-3.13569 -0.98313,-5.63315 2.21289,-5.65235 15.63635,-0.0942 18.08329,-7.45576 25.0625,-12.90039 z m 285.88672,9.73633 c 4.52297,-0.10694 2.89216,11.44053 -5.5039,12.69336 -14.54873,2.17091 -32.3713,2.30356 -43.43555,7.29687 -21.2579,10.61947 -45.27139,8.53565 -67.41406,7.99219 -3.16882,-0.0778 -3.82677,-1.2269 -4.86524,-2.77929 -2.53227,-3.78546 -1.73633,-13.55274 -1.73633,-13.55274 47.55123,0.52315 95.28363,-2.68119 121.96875,-11.4668 0.35605,-0.11722 0.6848,-0.17646 0.98633,-0.18359 z m -126.14258,11.1582 c -0.68874,8.7853 1.04025,12.13135 2.92383,15.12891 -25.41759,5.71373 -62.59952,15.91457 -80.10937,26.6543 l -4.76367,-5.15235 c -6.63371,-7.17635 -7.6952,-17.7034 -6.60157,-27.10351 0.23299,-2.00266 1.29093,-3.7871 4.86524,-5.90821 8.81995,-5.23403 76.69098,0.46052 83.68554,-3.61914 z m 133.94141,0.0449 c 2.21605,0.0648 3.42377,1.56265 3.0293,3.57421 -1.71206,8.7304 8.58118,5.67662 4.51758,14.24805 -12.99754,-2.09195 -24.86671,1.51098 -36.83399,4.51758 -9.38625,2.35815 -21.75768,10.33811 -44.82617,9.0332 -67.94315,-3.84332 -90.7393,11.25509 -136.56445,13.20508 4.95636,-6.61727 46.01198,-19.4329 80.27148,-27.10352 7.34021,3.60073 22.85591,1.86494 34.05274,1.73633 35.03073,-1.79369 40.00148,-10.73879 54.20898,-12.16211 15.34733,-1.53751 29.60936,-3.08057 39.61328,-6.60156 0.94057,-0.33104 1.79257,-0.46885 2.53125,-0.44726 z m 0.42383,19.21093 c 5.42099,-0.13264 9.13894,2.98516 2.08398,5.38672 -9.89101,3.36697 -8.97226,4.66798 -29.36328,10.59766 -20.64635,5.78036 -41.23522,12.22434 -58.72461,21.19726 -10.49097,5.38239 -67.4715,7.18393 -112.93554,23.63086 10.19725,-10.78901 39.99725,-37.83608 55.59961,-41.69922 6.82463,-1.68978 21.86146,-4.07992 59.76757,-4.16992 16.02506,-0.038 27.74314,0.009 48.12696,-7.4707 8.73671,-3.20573 25.72774,-7.2349 35.44531,-7.47266 z m 5.66016,6.41211 c -1.13198,3.11481 -1.68852,6.02865 -6.38868,8.84571 -8.84952,5.304 -48.2918,16.18683 -83.05078,34.89257 -0.78406,-2.8547 -1.92565,-4.9954 -1.47461,-10.32031 29.79945,-16.49826 63.18392,-20.63382 90.91407,-33.41797 z m -2.45704,9.0918 c -25.82825,41.80298 -87.1235,77.79722 -123.62304,74.23437 3.38152,-15.7404 20.83,-34.21207 79.39453,-56.78906 14.72118,-5.6751 30.44751,-11.48737 44.22851,-17.44531 z" />
      <path
         style="fill:#000000;fill-opacity:1;stroke:none;stroke-width:1px;stroke-linecap:butt;stroke-linejoin:miter;stroke-opacity:1"
         d="m 620.52018,914.05159 c -26.45089,-2.79384 -43.52768,-0.80498 -107.13078,17.69132 -3.52175,1.02415 -7.0946,2.7031 -8.84566,6.87995 -20.13979,48.0399 -30.93017,90.65954 -33.90836,100.74224 -7.77109,26.309 4.4729,15.0816 8.35423,16.2171 -19.02733,43.5323 -11.72483,76.6632 -2.94855,70.7652 -9.35337,35.6908 0.95221,54.8935 6.87996,53.074 7.85297,6.8111 14.00212,1.6954 20.63987,0 -6.8526,-0.027 -14.83823,1.0783 -16.70847,-3.9314 3.38374,-18.062 -8.22525,-30.0285 -4.91425,-48.1597 27.40532,-58.746 28.36137,-75.864 25.55413,-99.7594 -1.80312,-15.3482 -3.33281,-24.6649 -2.45714,-30.4684 2.01189,-13.33385 5.00238,-28.70173 10.31994,-44.71972 8.01205,9.34155 38.38153,-25.85385 107.13078,-30.46839 4.26561,-0.28631 7.69618,-3.90072 2.94856,-6.87995 -2.14834,-1.34813 -3.35778,-0.81845 -4.91426,-0.98285 z"
         id="path1055"
         sodipodi:nodetypes="ssssccccccsscsss" />
      <path
         id="path984"
         style="fill:url(#linearGradient992);fill-opacity:1;stroke:none;stroke-width:1px;stroke-linecap:butt;stroke-linejoin:miter;stroke-opacity:1"
         d="m 650.50195,894.39453 c -76.82845,1.169 -95.27213,67.22148 -97.29687,121.66797 -5.65124,151.9654 24.17841,209.8591 64.63281,278.6855 6.79792,11.5656 21.22475,28.0647 32.66406,27.8008 z m 0.0137,0 v 428.15427 c 11.43932,0.2639 25.86615,-16.2352 32.66407,-27.8008 40.4544,-68.8264 70.286,-126.7201 64.63476,-278.6855 -2.02474,-54.44649 -20.47038,-120.49897 -97.29883,-121.66797 z"
         sodipodi:nodetypes="cssccccssc" />
      <path
         id="path1007"
         style="color:#000000;font-style:normal;font-variant:normal;font-weight:normal;font-stretch:normal;font-size:medium;line-height:normal;font-family:sans-serif;font-variant-ligatures:normal;font-variant-position:normal;font-variant-caps:normal;font-variant-numeric:normal;font-variant-alternates:normal;font-variant-east-asian:normal;font-feature-settings:normal;font-variation-settings:normal;text-indent:0;text-align:start;text-decoration:none;text-decoration-line:none;text-decoration-style:solid;text-decoration-color:#000000;letter-spacing:normal;word-spacing:normal;text-transform:none;writing-mode:lr-tb;direction:ltr;text-orientation:mixed;dominant-baseline:auto;baseline-shift:baseline;text-anchor:start;white-space:normal;shape-padding:0;shape-margin:0;inline-size:0;clip-rule:nonzero;display:inline;overflow:visible;visibility:visible;opacity:1;isolation:auto;mix-blend-mode:normal;color-interpolation:sRGB;color-interpolation-filters:linearRGB;solid-color:#000000;solid-opacity:1;vector-effect:none;fill:#000000;fill-opacity:1;fill-rule:nonzero;stroke:none;stroke-linecap:butt;stroke-linejoin:miter;stroke-miterlimit:4;stroke-dasharray:none;stroke-dashoffset:0;stroke-opacity:1;color-rendering:auto;image-rendering:auto;shape-rendering:auto;text-rendering:auto;enable-background:accumulate;stop-color:#000000;stop-opacity:1"
         d="m 740.13281,965.03906 c -29.71667,3.17676 -59.58333,4.83589 -89.61719,4.86133 v 19.99805 c 31.57292,-0.0258 62.95229,-1.80998 94.14454,-5.22852 -1.14208,-6.62577 -2.63843,-13.20794 -4.52735,-19.63086 z m -179.25976,0.043 c -1.88651,6.42194 -3.37916,13.0028 -4.51953,19.62695 31.57523,3.52555 62.95562,5.21444 94.14843,5.18946 v -19.99805 c -29.70586,0.0247 -59.57622,-1.54798 -89.6289,-4.81836 z m 187.51757,73.93554 c -32.4459,3.8007 -65.0619,5.7866 -97.875,5.8144 v 29.9961 c 32.80713,-0.027 65.4048,-1.9426 97.79297,-5.6054 0.21373,-9.595 0.23116,-19.6862 0.082,-30.2051 z m -195.76171,0.023 c -0.14892,10.522 -0.13213,20.6155 0.082,30.2129 32.80331,3.7843 65.39964,5.6006 97.79101,5.5742 v -29.9961 c -32.42146,0.027 -65.03596,-1.857 -97.87304,-5.791 z m 194.30468,60.8672 c -31.78304,4.1246 -63.88901,6.3769 -96.41797,6.4375 v 39.9883 c 31.07135,-0.055 61.73189,-1.9988 92.00782,-5.5742 1.91278,-12.6233 3.39801,-26.1732 4.41015,-40.8516 z m -192.84179,0.076 c 1.01498,14.693 2.50422,28.255 4.42187,40.8886 31.07,3.7733 61.72432,5.5143 91.98828,5.461 v -39.9883 c -31.70366,0.058 -63.80874,-1.9623 -96.41015,-6.3613 z m 14.36718,87.3711 c 3.62699,12.8061 7.78315,24.6606 12.39258,35.9179 23.19855,1.4212 46.41582,2.15 69.65039,2.1504 v -35 c -27.37237,-4e-4 -54.71861,-1.0331 -82.04297,-3.0683 z m 164.09766,0.01 c -27.37486,2.0315 -54.7212,3.0606 -82.04102,3.0605 v 35 c 23.19993,2e-4 46.41631,-0.7257 69.64844,-2.1445 4.60949,-11.2566 8.76539,-23.1109 12.39258,-35.916 z m -145.21875,50.7597 c 5.75606,12.455 12.05095,24.3597 18.75391,36.2715 14.7954,0.7661 29.59987,1.152 44.41015,1.1524 v -34.9961 c -21.06882,-8e-4 -42.12234,-0.8102 -63.16406,-2.4278 z m 126.33984,0.01 c -21.0719,1.6145 -42.12503,2.4203 -63.16211,2.4199 v 34.9961 c 14.79636,10e-5 29.59937,-0.3835 44.40821,-1.1485 6.70252,-11.9108 12.998,-23.8138 18.7539,-36.2675 z m -102.21093,45.6777 c 2.09611,3.6294 4.21058,7.2637 6.37109,10.9394 6.79792,11.5656 21.22475,28.0647 32.66406,27.8008 v -37.9179 c -13.01767,-5e-4 -26.02861,-0.2788 -39.03515,-0.8223 z m 78.08203,0 c -13.01753,0.5425 -26.02856,0.8206 -39.03321,0.8204 v 37.9179 c 11.43932,0.2639 25.86615,-16.2352 32.66407,-27.8008 2.16005,-3.6749 4.27344,-7.3088 6.36914,-10.9375 z" />
      <path
         style="fill:#000000;fill-opacity:1;stroke:none;stroke-width:1px;stroke-linecap:butt;stroke-linejoin:miter;stroke-opacity:0.950292"
         d="m 702.92378,661.27416 c -9.50014,15.43764 2.38966,26.79747 16.33205,25.3668 10.57851,-1.08549 17.44202,-8.66908 19.45946,-19.45946 2.64262,-14.13414 -2.32088,-24.86555 -7.64478,-34.05406 -4.58426,-7.91197 -15.49225,-14.17126 -15.98456,-1.73745 -1.01441,25.61992 -6.99515,21.48782 -12.16217,29.88417 z"
         id="path1069"
         sodipodi:nodetypes="ssssss" />
      <path
         style="fill:#000000;fill-opacity:1;stroke:none;stroke-width:1px;stroke-linecap:butt;stroke-linejoin:miter;stroke-opacity:1"
         d="m 673.88204,594.29284 c 7.86525,-0.45022 11.76664,-1.75879 19.69795,-4.37345 3.74358,-1.23412 5.26299,-3.33887 6.86549,-6.50053 12.56944,-24.79903 38.58445,-48.00561 55.27566,-73.30301 9.73836,-14.75958 20.92538,-12.62841 30.57915,-15.98455 6.44867,-2.24189 7.11505,2.96847 2.77993,4.86486 -9.97477,4.36344 -23.65784,4.62899 -28.37497,14.10317 -13.63744,27.39026 -37.83617,47.19332 -55.63338,76.93931 -4.81426,8.04648 -15.8067,12.02976 -27.71492,15.37389 -13.93875,3.91434 -13.11792,-10.56771 -3.47491,-11.11969 z"
         id="path1071"
         sodipodi:nodetypes="ssssssssss" />
      <path
         id="path1075"
         style="fill:url(#linearGradient1077);fill-opacity:1;stroke:none;stroke-width:1px;stroke-linecap:butt;stroke-linejoin:miter;stroke-opacity:1"
         d="m 1071.3997,711.41992 c 23.3918,-0.0983 46.9556,3.49 67.2754,13.92383 19.3727,9.94751 44.7469,22.94573 10.8105,66.83398 -13.9681,18.06442 -28.4552,35.201 -51.1074,50.125 -21.7841,14.3521 -43.5272,27.6126 -74.6972,22.60547 -10.1543,24.01926 -28.6779,46.12575 -80.5938,50.12696 -29.83491,2.29941 -57.39903,-5.92062 -74.69725,-18.67578 -53.51227,5.74075 -134.23981,-60.10295 -133.66797,-99.26758 0.14149,-9.69044 2.47419,-17.41625 6.88086,-27.02735 1.98269,-4.32431 6.52823,-4.67942 10.81055,-4.91406 64.3623,-3.52664 132.76444,-15.5247 236.86721,-41.77148 22.2517,-5.61019 52.044,-11.83255 82.1191,-11.95899 z m 0.084,2.96485 c -23.9469,-0.0505 -49.5404,3.66413 -77.7793,10.95898 -9.2255,2.3832 -13.3171,7.24891 -3.4394,10.32031 4.5126,1.40318 10.0437,2.88002 16.4609,2.70313 10.7334,-0.29587 21.8879,-0.96303 33.9102,-0.49219 4.0109,0.15708 7.9033,-0.72077 12.5312,-1.71875 3.5055,-0.75592 33.8107,-2.0033 51.8438,-0.49219 11.5609,0.96876 15.9442,3.63129 21.8691,2.21094 4.3525,-1.04341 9.3055,-6.42547 1.9668,-11.05664 -11.6947,-7.38005 -27.0873,-10.71583 -41.0352,-11.79492 -5.363,-0.41491 -10.8019,-0.62702 -16.3281,-0.63867 z m -94.4961,17.30859 c -1.0278,-8.2e-4 -2.17,0.1637 -3.4316,0.53125 -7.5883,1.0358 -21.7634,3.88436 -22.6055,11.30273 -6.1856,5.24187 -11.2808,9.00856 -14.74412,13.26758 5.73052,-0.52713 11.76812,-1.84761 26.29292,-0.49023 3.9314,-0.13948 7.8616,0.66732 11.793,-3.19531 2.382,-3.39356 3.8686,-6.42819 9.3379,-11.05665 2.1521,-2.30626 0.5523,-10.35362 -6.6426,-10.35937 z m -31.9355,7.90234 c -49.86177,12.80619 -101.72687,25.02784 -173.47267,31.45118 -2.74178,1.63808 -2.81787,3.27597 0,4.91406 29.63938,6.91475 61.48526,6.10596 92.8789,6.88086 9.99232,-0.57696 19.9862,-0.32744 29.97852,-4.42383 25.28801,-9.06269 38.01012,-20.63786 49.63285,-32.43359 6.8054,-4.621 6.2084,-6.39468 0.9824,-6.38868 z m 82.1445,0.0176 c -7.603,-0.0723 -14.5432,1.08864 -20.6758,1.93164 11.6013,3.45102 27.6927,13.29574 43.7832,29.53711 5.1296,5.17766 13.0569,4.47523 20.502,5.21094 8.0627,0.79675 12.2199,-2.32014 7.6445,-9.19531 -6.1834,-9.29149 -13.3345,-12.29878 -20.1289,-17.60352 -5.7806,-4.51318 -14.2302,-8.13524 -23.3066,-9.33984 -2.6764,-0.3552 -5.2841,-0.51692 -7.8184,-0.54102 z m -34.914,1.2207 c -2.7766,-2.6e-4 -4.6355,0.63546 -5.9161,1.75196 -4.6973,4.09548 -10.0824,9.20311 -12.8574,14.94336 -2.6988,5.58278 9.0968,8.17021 16.6797,7.99218 16.4846,-0.38703 27.5163,0.0557 40.3086,2.08399 10.6416,1.6873 11.2319,-2.05425 5.2129,-6.94922 -8.7302,-7.0998 -18.712,-13.42234 -27.4512,-16.33203 -7.3196,-2.43705 -12.4067,-3.4899 -15.9765,-3.49024 z m -21.5528,17.39063 c -12.7512,0.60049 -33.65151,-0.88138 -38.91991,3.12695 -20.2511,15.40756 -31.67827,17.25747 -46.5625,22.23828 7.60493,4.41242 53.40247,-2.25415 79.92191,1.73828 5.4065,0.17545 9.9988,-0.87104 13.5527,-3.4746 3.4749,-2.54827 4.7492,-8.68658 4.5176,-14.94141 -8.7617,-0.18578 -12.4978,-5.60111 -12.5098,-8.6875 z m 70.1504,6.06445 c 2.4606,9.28769 -17.1913,2.71395 -27.0058,2.46094 -10.2704,-0.26476 -20.3288,-0.22426 -29.1602,0.16211 1.0184,17.88316 -10.0554,19.80672 -19.0215,20.10547 6.8917,4.38178 6.3988,8.34395 5.4063,22.11523 21.1136,0.7107 41.0785,-0.30035 63.3925,2.21094 5.0029,0.56304 9.8053,2.51713 16.2188,-3.68555 7.0905,-6.85748 12.3809,-13.42114 17.4453,-24.8164 1.3936,-3.13569 0.9831,-5.63315 -2.2129,-5.65235 -15.6363,-0.0942 -18.0833,-7.45576 -25.0625,-12.90039 z m -285.88671,9.73633 c -4.52297,-0.10694 -2.89216,11.44053 5.5039,12.69336 14.54873,2.17091 32.3713,2.30356 43.43555,7.29687 21.2579,10.61947 45.27139,8.53565 67.41406,7.99219 3.16882,-0.0778 3.82677,-1.2269 4.86524,-2.77929 2.53227,-3.78546 1.73633,-13.55274 1.73633,-13.55274 -47.55123,0.52315 -95.28363,-2.68119 -121.96875,-11.4668 -0.35605,-0.11722 -0.6848,-0.17646 -0.98633,-0.18359 z m 126.14258,11.1582 c 0.68874,8.7853 -1.04025,12.13135 -2.92383,15.12891 25.41759,5.71373 62.59956,15.91457 80.10936,26.6543 l 4.7637,-5.15235 c 6.6337,-7.17635 7.6952,-17.7034 6.6016,-27.10351 -0.233,-2.00266 -1.291,-3.7871 -4.8653,-5.90821 -8.8199,-5.23403 -76.69097,0.46052 -83.68553,-3.61914 z m -133.94141,0.0449 c -2.21605,0.0648 -3.42377,1.56265 -3.0293,3.57421 1.71206,8.7304 -8.58118,5.67662 -4.51758,14.24805 12.99754,-2.09195 24.86671,1.51098 36.83399,4.51758 9.38625,2.35815 21.75768,10.33811 44.82617,9.0332 67.94315,-3.84332 90.7393,11.25509 136.56446,13.20508 -4.9564,-6.61727 -46.01199,-19.4329 -80.27149,-27.10352 -7.34021,3.60073 -22.85591,1.86494 -34.05274,1.73633 -35.03073,-1.79369 -40.00148,-10.73879 -54.20898,-12.16211 -15.34733,-1.53751 -29.60936,-3.08057 -39.61328,-6.60156 -0.94057,-0.33104 -1.79257,-0.46885 -2.53125,-0.44726 z m -0.42383,19.21093 c -5.42099,-0.13264 -9.13894,2.98516 -2.08398,5.38672 9.89101,3.36697 8.97226,4.66798 29.36328,10.59766 20.64635,5.78036 41.23522,12.22434 58.72461,21.19726 10.49097,5.38239 67.4715,7.18393 112.93556,23.63086 -10.19727,-10.78901 -39.99727,-37.83608 -55.59963,-41.69922 -6.82463,-1.68978 -21.86146,-4.07992 -59.76757,-4.16992 -16.02506,-0.038 -27.74314,0.009 -48.12696,-7.4707 -8.73671,-3.20573 -25.72774,-7.2349 -35.44531,-7.47266 z m -5.66016,6.41211 c 1.13198,3.11481 1.68852,6.02865 6.38868,8.84571 8.84952,5.304 48.2918,16.18683 83.05078,34.89257 0.78406,-2.8547 1.92565,-4.9954 1.47461,-10.32031 -29.79945,-16.49826 -63.18392,-20.63382 -90.91407,-33.41797 z m 2.45704,9.0918 c 25.82825,41.80298 87.1235,77.79722 123.62304,74.23437 -3.38152,-15.7404 -20.83,-34.21207 -79.39453,-56.78906 -14.72118,-5.6751 -30.44751,-11.48737 -44.22851,-17.44531 z" />
    </g>
  </g>
</svg>
