<?xml version="1.0" encoding="UTF-8" standalone="no"?>
<!-- Created with Inkscape (http://www.inkscape.org/) -->

<svg
   width="56.758411mm"
   height="37.481968mm"
   viewBox="0 0 56.758411 37.481968"
   version="1.1"
   id="svg1"
   inkscape:version="1.4.3 (0d15f75, 2025-12-25)"
   sodipodi:docname="mimixcoa_master.svg"
   xmlns:inkscape="http://www.inkscape.org/namespaces/inkscape"
   xmlns:sodipodi="http://sodipodi.sourceforge.net/DTD/sodipodi-0.dtd"
   xmlns:xlink="http://www.w3.org/1999/xlink"
   xmlns="http://www.w3.org/2000/svg"
   xmlns:svg="http://www.w3.org/2000/svg">
  <sodipodi:namedview
     id="namedview1"
     pagecolor="#ffffff"
     bordercolor="#000000"
     borderopacity="0.25"
     inkscape:showpageshadow="2"
     inkscape:pageopacity="0.0"
     inkscape:pagecheckerboard="0"
     inkscape:deskcolor="#d1d1d1"
     inkscape:document-units="mm"
     inkscape:zoom="1.4823793"
     inkscape:cx="173.36993"
     inkscape:cy="122.77559"
     inkscape:window-width="1434"
     inkscape:window-height="729"
     inkscape:window-x="0"
     inkscape:window-y="25"
     inkscape:window-maximized="0"
     inkscape:current-layer="layer1" />
  <defs
     id="defs1">
    <linearGradient
       id="linearGradient1"
       inkscape:collect="always">
      <stop
         style="stop-color:#79f6ab;stop-opacity:1;"
         offset="0"
         id="stop1" />
      <stop
         style="stop-color:#896dc7;stop-opacity:1;"
         offset="1"
         id="stop2" />
    </linearGradient>
    <linearGradient
       inkscape:collect="always"
       xlink:href="#linearGradient1"
       id="linearGradient2"
       x1="14.603688"
       y1="99.649284"
       x2="62.676289"
       y2="99.649284"
       gradientUnits="userSpaceOnUse" />
  </defs>
  <g
     inkscape:label="Layer 1"
     inkscape:groupmode="layer"
     id="layer1"
     transform="translate(-10.530648,-81.032448)">
    <path
       style="font-size:23.6381px;line-height:0.9;font-family:NahuatlOne;-inkscape-font-specification:'NahuatlOne, Normal';fill:url(#linearGradient2);stroke:none;stroke-width:1.059"
       d="m 19.370551,92.579782 c -2.677754,0 -4.766863,2.331492 -4.766863,5.263171 0,3.889667 3.289482,5.701767 3.289482,5.701767 l 0.7964,-1.50046 c 0,0 -2.389202,-1.24654 -2.389202,-4.201307 0,-2.158362 1.350419,-3.566491 3.070183,-3.566491 1.523549,0 2.839342,1.292709 2.862426,3.474155 l 0.02308,5.551723 v 0.0115 h 1.69668 v -0.0115 l 0.02308,-5.563266 c 0.01154,-2.169903 1.338877,-3.462612 2.862426,-3.462612 1.719764,0 3.070183,1.408129 3.070183,3.566491 0,2.954767 -2.389202,4.201307 -2.389202,4.201307 l 0.7964,1.50046 c 0,0 3.289482,-1.8121 3.289482,-5.701767 0,-2.931679 -2.089109,-5.263171 -4.766863,-5.263171 -1.546633,0 -2.920136,0.854111 -3.739621,2.181446 -0.819485,-1.327335 -2.181446,-2.181446 -3.728079,-2.181446 z m 6.832888,-7.109897 c -0.992615,0 -1.950605,0.334719 -2.712379,0.946447 -0.761775,0.611729 -1.327335,1.535092 -1.327335,2.620044 v 1.985231 h 1.69668 v -1.985231 c 0,-0.50785 0.242383,-0.946448 0.68098,-1.292709 0.438598,-0.346261 1.07341,-0.577102 1.662054,-0.577102 z m 12.246105,7.109897 c -2.677754,0 -4.766863,2.331492 -4.766863,5.263171 0,3.889667 3.289481,5.701767 3.289481,5.701767 l 0.796401,-1.50046 c 0,0 -2.389202,-1.24654 -2.389202,-4.201307 0,-2.158362 1.350419,-3.566491 3.070183,-3.566491 1.523549,0 2.839342,1.292709 2.862426,3.474155 l 0.02308,5.551723 v 0.0115 h 1.69668 v -0.0115 l 0.02308,-5.563266 c 0.01154,-2.169903 1.338877,-3.462612 2.862426,-3.462612 1.719764,0 3.070183,1.408129 3.070183,3.566491 0,2.954767 -2.389203,4.201307 -2.389203,4.201307 l 0.796401,1.50046 c 0,0 3.289482,-1.8121 3.289482,-5.701767 0,-2.931679 -2.089109,-5.263171 -4.766863,-5.263171 -1.546633,0 -2.920136,0.854111 -3.739621,2.181446 -0.819485,-1.327335 -2.181446,-2.181446 -3.728079,-2.181446 z m 6.832886,-7.109897 c -0.992615,0 -1.950605,0.334719 -2.712379,0.946447 -0.761775,0.611729 -1.327335,1.535092 -1.327335,2.620044 v 1.985231 h 1.69668 v -1.985231 c 0,-0.50785 0.242383,-0.946448 0.68098,-1.292709 0.438598,-0.346261 1.07341,-0.577102 1.662054,-0.577102 z m -8.991247,27.781695 1.581259,0.63481 c 0,0 0.542476,-1.33888 1.465839,-2.79317 1.084952,1.23499 2.469997,2.27378 4.189761,2.27378 2.966305,0 4.432144,-2.05449 4.432144,-3.67037 0,-1.63897 -1.488923,-3.71654 -4.432144,-3.71654 -1.719764,0 -3.093267,1.0157 -4.189761,2.26224 -0.923363,-1.4543 -1.465839,-2.81626 -1.465839,-2.81626 l -1.581259,0.63482 c 0,0 0.761774,1.86981 1.950604,3.61265 -1.200372,1.74285 -1.950604,3.57804 -1.950604,3.57804 z m 7.236859,-5.57481 c 2.169904,0 2.735464,1.40813 2.735464,2.01986 0,0.63481 -0.50785,1.97369 -2.735464,1.97369 -1.061868,0 -2.192988,-0.86566 -3.150977,-1.99678 0.969531,-1.14266 2.100651,-1.99677 3.150977,-1.99677 z M 58.255685,92.591324 c -3.024015,0 -5.494011,2.469997 -5.494011,5.494012 0,3.024014 2.469996,5.494014 5.494011,5.494014 1.950605,0 3.139435,-0.80795 4.420602,-1.91598 l -1.108036,-1.28117 c -1.223457,1.06187 -1.765933,1.50047 -3.312566,1.50047 -2.100651,0 -3.797331,-1.69668 -3.797331,-3.797334 0,-2.100652 1.69668,-3.78579 3.797331,-3.78579 1.050326,0 1.985231,0.415514 2.677754,1.108036 l 1.200372,-1.200372 c -0.992616,-0.992616 -2.366119,-1.615886 -3.878126,-1.615886 z m -1.719764,-7.179149 c -1.569718,0 -2.862427,1.292708 -2.862427,2.862426 0,1.569718 1.292709,2.862426 2.862427,2.862426 1.569717,0 2.862426,-1.292708 2.862426,-2.862426 0,-1.569718 -1.292709,-2.862426 -2.862426,-2.862426 z m 3.693453,0.277009 v 3.543406 0.01154 c 0.02308,0.600187 0.300093,1.096494 0.634812,1.408129 0.334719,0.311636 0.68098,0.461682 0.992615,0.530934 l 0.380888,-1.650512 c -0.03463,-0.01154 -0.161589,-0.05771 -0.219299,-0.11542 -0.05771,-0.05771 -0.09234,-0.09234 -0.09234,-0.230841 v -3.497238 z m -3.693453,1.419671 c 0.657896,0 1.165746,0.50785 1.165746,1.165746 0,0.657896 -0.50785,1.165746 -1.165746,1.165746 -0.657897,0 -1.165747,-0.50785 -1.165747,-1.165746 0,-0.657896 0.50785,-1.165746 1.165747,-1.165746 z"
       id="text1"
       aria-label="" />
  </g>
</svg>
