<?xml version="1.0" encoding="UTF-8" standalone="no"?>
<svg
   xmlns:dc="http://purl.org/dc/elements/1.1/"
   xmlns:cc="http://creativecommons.org/ns#"
   xmlns:rdf="http://www.w3.org/1999/02/22-rdf-syntax-ns#"
   xmlns:svg="http://www.w3.org/2000/svg"
   xmlns="http://www.w3.org/2000/svg"
   xmlns:sodipodi="http://sodipodi.sourceforge.net/DTD/sodipodi-0.dtd"
   xmlns:inkscape="http://www.inkscape.org/namespaces/inkscape"
   width="100mm"
   height="100mm"
   viewBox="0 0 100 100"
   version="1.1"
   id="svg8"
   inkscape:version="1.0.2 (e86c8708, 2021-01-15)"
   sodipodi:docname="speech.svg">
  <defs
     id="defs2" />
  <sodipodi:namedview
     id="base"
     pagecolor="#ffffff"
     bordercolor="#666666"
     borderopacity="1.0"
     inkscape:pageopacity="0.0"
     inkscape:pageshadow="2"
     inkscape:zoom="0.35"
     inkscape:cx="90.266442"
     inkscape:cy="330.78904"
     inkscape:document-units="mm"
     inkscape:current-layer="layer1"
     inkscape:document-rotation="0"
     showgrid="false"
     fit-margin-top="0"
     fit-margin-left="0"
     fit-margin-right="0"
     fit-margin-bottom="0"
     showguides="true"
     inkscape:guide-bbox="true"
     inkscape:window-width="1371"
     inkscape:window-height="755"
     inkscape:window-x="0"
     inkscape:window-y="23"
     inkscape:window-maximized="0">
    <sodipodi:guide
       position="55.592061,49.753328"
       orientation="0,-1"
       id="guide839" />
    <sodipodi:guide
       position="49.979401,41.735243"
       orientation="1,0"
       id="guide841" />
    <sodipodi:guide
       position="49.979401,68.729465"
       orientation="0,-1"
       id="guide863" />
    <sodipodi:guide
       position="33.141421,56.435066"
       orientation="1,0"
       id="guide865" />
  </sodipodi:namedview>
  <metadata
     id="metadata5">
    <rdf:RDF>
      <cc:Work
         rdf:about="">
        <dc:format>image/svg+xml</dc:format>
        <dc:type
           rdf:resource="http://purl.org/dc/dcmitype/StillImage" />
        <dc:title />
      </cc:Work>
    </rdf:RDF>
  </metadata>
  <g
     inkscape:label="Layer 1"
     inkscape:groupmode="layer"
     id="layer1"
     transform="translate(-6.0476193,-20.410715)">
    <path
       id="rect849"
       style="opacity:1;fill:#000000;stroke-width:0.470018"
       d="M 291.79492 24.654297 L 265.33789 45.703125 C 288.41853 74.321885 302.22461 110.75454 302.22461 150.5 C 302.22461 189.64178 288.83807 225.57361 266.38672 253.99023 L 292.84766 275.03906 C 320.00067 240.77813 336.24023 197.49686 336.24023 150.5 C 336.24023 102.90179 319.5775 59.119242 291.79492 24.654297 z M 239.16406 66.527344 L 212.70508 87.576172 C 226.63394 104.70376 234.9668 126.58549 234.9668 150.5 C 234.9668 173.81061 227.05364 195.1912 213.75391 212.11719 L 240.21289 233.16797 C 258.21578 210.39742 268.98438 181.66741 268.98438 150.5 C 268.98438 118.73451 257.79416 89.501958 239.16406 66.527344 z M 135.28516 83.322266 A 67.175146 67.175146 0 0 0 68.181641 150.49609 A 67.175146 67.175146 0 0 0 135.35547 217.67188 A 67.175146 67.175146 0 0 0 202.53125 150.49609 A 67.175146 67.175146 0 0 0 135.35547 83.322266 A 67.175146 67.175146 0 0 0 135.28516 83.322266 z M 84.847656 244.27344 C 60.416684 244.27344 40.672334 263.57341 39.931641 287.81836 L 39.896484 287.81836 L 39.896484 289.22656 L 39.896484 339.05469 C 39.896484 344.59102 44.354294 349.04883 49.890625 349.04883 L 220.82227 349.04883 C 226.35861 349.04883 230.81641 344.59102 230.81641 339.05469 L 230.81445 289.22656 L 230.81445 287.81836 L 230.7793 287.81836 C 230.03861 263.57339 210.29427 244.27344 185.86328 244.27344 L 84.847656 244.27344 z "
       transform="matrix(0.26458333,0,0,0.26458333,6.0476193,20.410715)" />
  </g>
</svg>
