<?xml version="1.0" encoding="UTF-8" standalone="no"?>
<svg
   xmlns:dc="http://purl.org/dc/elements/1.1/"
   xmlns:cc="http://creativecommons.org/ns#"
   xmlns:rdf="http://www.w3.org/1999/02/22-rdf-syntax-ns#"
   xmlns:svg="http://www.w3.org/2000/svg"
   xmlns="http://www.w3.org/2000/svg"
   xmlns:sodipodi="http://sodipodi.sourceforge.net/DTD/sodipodi-0.dtd"
   xmlns:inkscape="http://www.inkscape.org/namespaces/inkscape"
   width="100mm"
   height="100mm"
   viewBox="0 0 100 100"
   version="1.1"
   id="svg8"
   inkscape:version="1.0.2 (e86c8708, 2021-01-15)"
   sodipodi:docname="yinyang.svg">
  <defs
     id="defs2" />
  <sodipodi:namedview
     id="base"
     pagecolor="#ffffff"
     bordercolor="#666666"
     borderopacity="1.0"
     inkscape:pageopacity="0.0"
     inkscape:pageshadow="2"
     inkscape:zoom="0.98994949"
     inkscape:cx="94.80522"
     inkscape:cy="200.5195"
     inkscape:document-units="mm"
     inkscape:current-layer="layer1"
     inkscape:document-rotation="0"
     showgrid="false"
     fit-margin-top="0"
     fit-margin-left="0"
     fit-margin-right="0"
     fit-margin-bottom="0"
     showguides="true"
     inkscape:guide-bbox="true"
     inkscape:window-width="1371"
     inkscape:window-height="755"
     inkscape:window-x="0"
     inkscape:window-y="23"
     inkscape:window-maximized="0">
    <sodipodi:guide
       position="55.592061,49.753328"
       orientation="0,-1"
       id="guide839" />
    <sodipodi:guide
       position="49.979401,41.735243"
       orientation="1,0"
       id="guide841" />
  </sodipodi:namedview>
  <metadata
     id="metadata5">
    <rdf:RDF>
      <cc:Work
         rdf:about="">
        <dc:format>image/svg+xml</dc:format>
        <dc:type
           rdf:resource="http://purl.org/dc/dcmitype/StillImage" />
        <dc:title></dc:title>
      </cc:Work>
    </rdf:RDF>
  </metadata>
  <g
     inkscape:label="Layer 1"
     inkscape:groupmode="layer"
     id="layer1"
     transform="translate(-6.0476193,-20.410715)">
    <path
       id="path835"
       style="fill:#000000;fill-opacity:1;stroke-width:0.264583"
       d="m 34.422115,49.189319 a 21.514636,21.515196 0 0 0 -21.424532,21.46794 h -5.17e-4 a 43.164027,43.164027 0 0 0 -5.17e-4,0.133842 43.164027,43.164027 0 0 0 43.164291,43.163769 43.164027,43.164027 0 0 0 43.163772,-43.163769 43.164027,43.164027 0 0 0 -5.16e-4,-0.133842 h -0.03256 a 21.632125,21.515195 0 0 1 -21.632272,21.467942 21.632125,21.515195 0 0 1 -0.09095,0 21.632125,21.515195 0 0 1 -21.541319,-21.467942 21.514636,21.515196 0 0 0 -21.514451,-21.46794 21.514636,21.515196 0 0 0 -0.09043,0 z" />
    <path
       id="circle848"
       style="fill:#ffffff;fill-opacity:1;stroke-width:0.264583"
       d="M 56.16084,27.626812 A 43.164027,43.164027 0 0 0 12.997066,70.657259 h 5.17e-4 a 21.514636,21.515195 0 0 1 21.424532,-21.467939 21.514636,21.515195 0 0 1 0.09043,0 21.514636,21.515195 0 0 1 21.514451,21.467939 21.632126,21.515196 0 0 0 21.541319,21.467942 21.632126,21.515196 0 0 0 0.09095,0 21.632126,21.515196 0 0 0 21.632272,-21.467942 h 0.03256 A 43.164027,43.164027 0 0 0 56.16084,27.626812 Z" />
  </g>
</svg>
