<svg xmlns="http://www.w3.org/2000/svg" xmlns:xlink="http://www.w3.org/1999/xlink" viewBox="0 0 1100 1100"><defs><linearGradient id="b"><stop offset="0"/><stop offset="1" stop-color="#ffef9d"/></linearGradient><linearGradient id="f"><stop offset="0" stop-color="#fbf1a5"/><stop offset="1" stop-color="#f5c764"/></linearGradient><linearGradient id="e"><stop offset="0"/><stop offset="1" stop-color="#7d7d7d"/></linearGradient><linearGradient id="d"><stop offset="0"/><stop offset="1" stop-color="#f3d118" stop-opacity="0"/></linearGradient><linearGradient id="c"><stop offset="0"/><stop offset="1" stop-color="#ffef9d"/></linearGradient><linearGradient id="a"><stop offset="0" stop-color="#3e3e3e"/><stop offset="1" stop-color="#f9f6b8"/></linearGradient><linearGradient xlink:href="#a" id="g" x1="650.502" y1="696.841" x2="650.502" y2="632.956" gradientUnits="userSpaceOnUse"/><linearGradient xlink:href="#d" id="l" x1="364.639" y1="756.795" x2="281.099" y2="905.807" gradientUnits="userSpaceOnUse"/><linearGradient xlink:href="#e" id="h" gradientUnits="userSpaceOnUse" x1="408.593" y1="713.709" x2="485.792" y2="806.178"/><linearGradient xlink:href="#f" id="m" x1="650.502" y1="894.395" x2="650.502" y2="1100.424" gradientUnits="userSpaceOnUse"/><linearGradient xlink:href="#d" id="n" gradientUnits="userSpaceOnUse" x1="364.639" y1="756.795" x2="281.099" y2="905.807" gradientTransform="matrix(-1 0 0 1 1300.845 0)"/><linearGradient xlink:href="#e" id="i" gradientUnits="userSpaceOnUse" x1="408.593" y1="713.709" x2="485.792" y2="806.178" gradientTransform="matrix(-1 0 0 1 1302.743 0)"/><radialGradient xlink:href="#b" id="k" cx="650.502" cy="803.746" fx="650.502" fy="803.746" r="53.575" gradientTransform="matrix(1.56883 0 0 1.75402 -370.023 -605.21)" gradientUnits="userSpaceOnUse"/><radialGradient xlink:href="#c" id="j" gradientUnits="userSpaceOnUse" gradientTransform="matrix(1.56883 0 0 1.75402 -370.023 -605.21)" cx="650.502" cy="803.746" fx="650.502" fy="803.746" r="53.575"/></defs><path d="M648.803 585.78v.068c-12.341.824-17.374 9.321-24.201 14.674-7.682 6.022-5.481 3.642-18.428 7.617-6.09 1.87-14.382 5.8-18.43 9.338-19.87 17.36-21.898 27.121-22.85 43.736-.729 12.73 2.726 30.317 18.92 37.103 10.827 4.537 22.003 5.239 33.416 4.915 11.42-.325 22.557-6.015 32.422-6.356 9.865.341 21.003 6.031 32.422 6.356 11.414.324 22.592-.378 33.418-4.915 16.194-6.786 19.65-24.374 18.92-37.103-.952-16.615-2.982-26.376-22.851-43.736-4.048-3.537-12.339-7.469-18.428-9.338-12.947-3.975-10.748-1.595-18.43-7.617-6.828-5.353-11.859-13.85-24.201-14.674v-.069c-.289.003-.568.015-.85.026-.28-.01-.56-.023-.85-.026z" fill="url(#g)" transform="translate(-100.423 -358.068)"/><path d="M526.281 236.224c-7.865-.45-11.766-1.758-19.697-4.373-3.744-1.234-5.263-3.339-6.866-6.5-12.57-24.8-38.584-48.006-55.276-73.304-9.738-14.76-20.925-12.628-30.579-15.984-6.448-2.242-7.115 2.968-2.78 4.865 9.975 4.363 23.658 4.629 28.375 14.103 13.638 27.39 37.836 47.193 55.634 76.94 4.814 8.046 15.806 12.029 27.715 15.373 13.938 3.915 13.117-10.568 3.474-11.12zM497.608 303.206c9.5 15.437-2.39 26.797-16.332 25.367-10.578-1.086-17.442-8.67-19.46-19.46-2.642-14.134 2.322-24.865 7.646-34.054 4.584-7.912 15.492-14.171 15.984-1.737 1.015 25.62 6.995 21.487 12.162 29.884z"/><path d="M526.145 355.482c-24.392-7.147-48.175-11.855-71.257-13.76-3.112-11.467-32.57-81.149-51.6-80.594 1.319-9.322-3.225-14.124-11.794-18.183 3.06-2.984 2.341-8.974-2.457-13.268-.438 11.81-5.966 12.903-14.251 14.251 3.506 4.488 6.547 7.39 13.269 6.389 1.638 9.541 7.207 10.07 10.81 14.25 5.816 12.41 8.263 23.134 8.847 32.926 7.605 37.839 23.055 42.73 36.856 54.549 15.794 32.654 67.593 21.536 80.594 17.2z" stroke="#000"/><path d="M589.344 851.351c-19.181-24.965-36.074-24.758-53.514-30.579-20.838-13.545-40.447-28.81-70.193-29.884-19.728-16.807-9.672-41.92-32.664-54.208.101-7.414-.847-14.827-6.255-22.24 7.71 22.464-7.12 25.385-18.07 25.02 5.786 3.514 12.054 4.13 18.765 2.084 9.045 8.552 7.45 30.736 18.07 43.784-4.946 25.836 11.775 19.17 20.154 25.02 20.163 22.438 46.04 22.016 69.498 31.274 15.86 38.303 34.18 52.026 55.599 34.749 2.32-6.02 6.88-10.173-1.39-25.02z" fill="url(#h)" transform="translate(-100.423 -358.068)"/><path d="M574.4 355.482c24.392-7.147 48.174-11.855 71.256-13.76 3.113-11.467 32.57-81.149 51.6-80.594-1.318-9.322 3.226-14.124 11.794-18.183-3.06-2.984-2.34-8.974 2.457-13.268.439 11.81 5.966 12.903 14.252 14.251-3.506 4.488-6.548 7.39-13.269 6.389-1.638 9.541-7.208 10.07-10.811 14.25-5.816 12.41-8.262 23.134-8.846 32.926-7.606 37.839-23.056 42.73-36.857 54.549-15.793 32.654-67.592 21.536-80.594 17.2z" stroke="#000"/><path d="M713.399 851.351c19.18-24.965 36.073-24.758 53.513-30.579 20.838-13.545 40.447-28.81 70.194-29.884 19.728-16.807 9.671-41.92 32.664-54.208-.101-7.414.846-14.827 6.254-22.24-7.71 22.464 7.12 25.385 18.07 25.02-5.785 3.514-12.053 4.13-18.765 2.084-9.044 8.552-7.45 30.736-18.069 43.784 4.946 25.836-11.776 19.17-20.154 25.02-20.163 22.438-46.04 22.016-69.499 31.274-15.86 38.303-34.18 52.026-55.598 34.749-2.32-6.02-6.881-10.173 1.39-25.02z" fill="url(#i)" transform="translate(-100.423 -358.068)"/><path d="M643.906 710.6c-66.967.816-97.416 27.292-99.406 80.595-3.68 98.569 61.915 105.025 105.926 103.201 44.01 1.824 109.608-4.63 105.928-103.2-2.054-54.984-34.39-81.42-105.852-80.594h-.15a272.16 272.16 0 00-6.446-.002z" fill="url(#j)" stroke="url(#k)" transform="translate(-100.423 -358.068)"/><path d="M577.813 555.983c26.451-2.794 43.528-.805 107.131 17.692 3.522 1.024 7.095 2.703 8.846 6.88 20.14 48.04 30.93 90.659 33.908 100.742 7.771 26.309-4.473 15.081-8.354 16.217 19.027 43.532 11.725 76.663 2.949 70.765 9.353 35.69-.953 54.894-6.88 53.074-7.853 6.811-14.003 1.695-20.64 0 6.852-.027 14.838 1.078 16.708-3.931-3.384-18.062 8.225-30.029 4.914-48.16-27.405-58.746-28.361-75.864-25.554-99.76 1.803-15.348 3.333-24.664 2.457-30.468-2.011-13.334-5.002-28.702-10.32-44.72-8.012 9.342-38.381-25.853-107.13-30.468-4.266-.286-7.696-3.9-2.949-6.88 2.148-1.348 3.358-.818 4.914-.983z"/><path d="M229.445 711.42c-23.391-.098-46.955 3.49-67.275 13.924-19.373 9.947-44.747 22.945-10.81 66.834 13.968 18.064 28.455 35.2 51.107 50.125 21.784 14.352 43.527 27.612 74.697 22.605 10.154 24.02 28.678 46.126 80.594 50.127 29.835 2.3 57.399-5.92 74.697-18.676 53.512 5.741 134.24-60.103 133.668-99.267-.141-9.69-2.474-17.416-6.88-27.028-1.984-4.324-6.529-4.679-10.811-4.914-64.363-3.526-132.765-15.524-236.868-41.771-22.251-5.61-52.044-11.833-82.119-11.96zm-.084 2.965c23.947-.05 49.54 3.664 77.78 10.959 9.225 2.383 13.317 7.249 3.44 10.32-4.514 1.403-10.045 2.88-16.462 2.703-10.733-.296-21.888-.963-33.91-.492-4.011.157-7.903-.72-12.531-1.719-3.506-.756-33.811-2.003-51.844-.492-11.56.969-15.944 3.631-21.87 2.211-4.352-1.043-9.305-6.425-1.966-11.057 11.695-7.38 27.087-10.715 41.035-11.795a217.507 217.507 0 0116.328-.638zm94.496 17.308c1.028 0 2.17.164 3.432.532 7.588 1.035 21.763 3.884 22.606 11.302 6.185 5.242 11.28 9.009 14.744 13.268-5.73-.527-11.768-1.848-26.293-.49-3.932-.14-7.862.667-11.793-3.196-2.382-3.393-3.869-6.428-9.338-11.056-2.152-2.307-.553-10.354 6.642-10.36zm31.936 7.903c49.862 12.806 101.727 25.028 173.473 31.45 2.741 1.639 2.817 3.277 0 4.915-29.64 6.915-61.486 6.106-92.88 6.88-9.992-.576-19.986-.327-29.978-4.423-25.288-9.063-38.01-20.638-49.633-32.434-6.805-4.62-6.208-6.394-.982-6.388zm-82.145.017c7.603-.072 14.544 1.089 20.676 1.932-11.601 3.451-27.692 13.296-43.783 29.537-5.13 5.178-13.057 4.475-20.502 5.211-8.063.797-12.22-2.32-7.644-9.195 6.183-9.292 13.334-12.3 20.128-17.604 5.781-4.513 14.23-8.135 23.307-9.34a63.922 63.922 0 017.818-.54zm34.914 1.221c2.777 0 4.636.635 5.916 1.752 4.698 4.095 10.083 9.203 12.858 14.943 2.699 5.583-9.097 8.17-16.68 7.992-16.484-.387-27.516.056-40.308 2.084-10.642 1.688-11.232-2.054-5.213-6.949 8.73-7.1 18.712-13.422 27.45-16.332 7.32-2.437 12.408-3.49 15.977-3.49zm21.553 17.39c12.751.601 33.652-.88 38.92 3.128 20.251 15.407 31.678 17.257 46.563 22.238-7.605 4.412-53.403-2.254-79.922 1.738-5.407.176-10-.87-13.553-3.474-3.475-2.549-4.75-8.687-4.518-14.942 8.762-.186 12.498-5.601 12.51-8.687zm-70.15 6.065c-2.46 9.288 17.191 2.714 27.006 2.461 10.27-.265 20.328-.224 29.16.162-1.019 17.883 10.055 19.807 19.021 20.106-6.891 4.381-6.398 8.344-5.406 22.115-21.114.71-41.078-.3-63.393 2.21-5.002.564-9.805 2.518-16.218-3.685-7.09-6.857-12.381-13.42-17.446-24.816-1.393-3.136-.983-5.633 2.213-5.653 15.637-.094 18.084-7.455 25.063-12.9zm285.887 9.736c4.523-.107 2.892 11.44-5.504 12.694-14.55 2.17-32.372 2.303-43.436 7.297-21.258 10.62-45.271 8.535-67.414 7.992-3.169-.078-3.827-1.227-4.865-2.78-2.532-3.785-1.737-13.552-1.737-13.552 47.552.523 95.284-2.681 121.97-11.467.355-.117.684-.176.986-.184zm-126.143 11.159c-.689 8.785 1.04 12.131 2.924 15.129-25.418 5.713-62.6 15.914-80.11 26.654l-4.763-5.153c-6.634-7.176-7.695-17.703-6.602-27.103.233-2.003 1.291-3.787 4.865-5.908 8.82-5.234 76.691.46 83.686-3.62zm133.941.045c2.216.064 3.424 1.562 3.03 3.574-1.712 8.73 8.58 5.676 4.517 14.248-12.997-2.092-24.866 1.51-36.834 4.517-9.386 2.358-21.757 10.338-44.826 9.034-67.943-3.844-90.74 11.255-136.564 13.205 4.956-6.618 46.012-19.433 80.271-27.104 7.34 3.6 22.856 1.865 34.053 1.736 35.03-1.793 40.001-10.738 54.209-12.162 15.347-1.537 29.61-3.08 39.613-6.601.94-.331 1.793-.47 2.531-.447zm.424 19.21c5.421-.132 9.14 2.986 2.084 5.387-9.89 3.367-8.972 4.668-29.363 10.598-20.646 5.78-41.235 12.224-58.725 21.197-10.49 5.382-67.471 7.184-112.935 23.63 10.197-10.788 39.997-37.835 55.6-41.698 6.824-1.69 21.86-4.08 59.767-4.17 16.025-.038 27.743.009 48.127-7.47 8.737-3.207 25.728-7.236 35.445-7.474zm5.66 6.413c-1.132 3.114-1.688 6.028-6.388 8.845-8.85 5.304-48.292 16.187-83.051 34.893-.784-2.855-1.926-4.996-1.475-10.32 29.8-16.499 63.184-20.634 90.914-33.418zm-2.457 9.091c-25.828 41.803-87.123 77.798-123.623 74.235 3.382-15.74 20.83-34.212 79.395-56.79 14.721-5.674 30.447-11.487 44.228-17.445z" fill="url(#l)" transform="translate(-100.423 -358.068)"/><path d="M520.098 555.983c-26.451-2.794-43.528-.805-107.131 17.692-3.522 1.024-7.095 2.703-8.846 6.88-20.14 48.04-30.93 90.659-33.908 100.742-7.771 26.309 4.473 15.081 8.354 16.217-19.027 43.532-11.725 76.663-2.948 70.765-9.354 35.69.952 54.894 6.88 53.074 7.852 6.811 14.002 1.695 20.64 0-6.853-.027-14.839 1.078-16.71-3.931 3.385-18.062-8.224-30.029-4.913-48.16 27.405-58.746 28.361-75.864 25.554-99.76-1.803-15.348-3.333-24.664-2.457-30.468 2.012-13.334 5.002-28.702 10.32-44.72 8.012 9.342 38.381-25.853 107.13-30.468 4.266-.286 7.697-3.9 2.949-6.88-2.148-1.348-3.358-.818-4.914-.983z"/><path d="M650.502 894.395c-76.828 1.169-95.272 67.221-97.297 121.668-5.651 151.965 24.178 209.859 64.633 278.685 6.798 11.566 21.225 28.065 32.664 27.8zm.014 0v428.154c11.439.264 25.866-16.235 32.664-27.801 40.454-68.826 70.286-126.72 64.634-278.685-2.024-54.447-20.47-120.5-97.298-121.668z" fill="url(#m)" transform="translate(-100.423 -358.068)"/><path style="line-height:normal;font-variant-ligatures:normal;font-variant-position:normal;font-variant-caps:normal;font-variant-numeric:normal;font-variant-alternates:normal;font-variant-east-asian:normal;font-feature-settings:normal;font-variation-settings:normal;text-indent:0;text-align:start;text-decoration-line:none;text-decoration-style:solid;text-decoration-color:#000;text-transform:none;text-orientation:mixed;white-space:normal;shape-padding:0;shape-margin:0;inline-size:0;isolation:auto;mix-blend-mode:normal;solid-color:#000;solid-opacity:1" d="M639.71 606.97c-29.716 3.177-59.583 4.837-89.617 4.862v19.998c31.573-.026 62.952-1.81 94.145-5.228-1.142-6.626-2.639-13.208-4.528-19.631zm-179.26.044c-1.886 6.422-3.379 13.002-4.519 19.627a841.6 841.6 0 0094.148 5.19v-19.999a821.428 821.428 0 01-89.628-4.818zm187.518 73.935c-32.446 3.8-65.062 5.787-97.875 5.815v29.996c32.807-.027 65.405-1.943 97.793-5.606.214-9.595.231-19.686.082-30.205zm-195.762.023c-.149 10.522-.132 20.616.082 30.213 32.804 3.784 65.4 5.6 97.791 5.574v-29.996a816.137 816.137 0 01-97.873-5.79zm194.305 60.867c-31.783 4.125-63.889 6.377-96.418 6.438v39.988c31.071-.055 61.732-1.999 92.008-5.574 1.913-12.623 3.398-26.173 4.41-40.852zm-192.842.076c1.015 14.693 2.505 28.255 4.422 40.889a751.046 751.046 0 0091.988 5.461v-39.988c-31.703.058-63.808-1.963-96.41-6.362zm14.367 87.372a335.71 335.71 0 0012.393 35.917 1139.135 1139.135 0 0069.65 2.15v-35c-27.372 0-54.718-1.032-82.043-3.067zm164.098.01a1108.144 1108.144 0 01-82.04 3.06v35c23.199 0 46.415-.726 69.648-2.144a335.728 335.728 0 0012.392-35.916zm-145.219 50.76c5.756 12.454 12.051 24.359 18.754 36.27 14.796.767 29.6 1.153 44.41 1.153v-34.996c-21.068 0-42.122-.81-63.164-2.428zm126.34.01a826.265 826.265 0 01-63.162 2.42v34.995c14.796 0 29.6-.383 44.408-1.148 6.703-11.911 12.998-23.814 18.754-36.268zm-102.21 45.677c2.095 3.63 4.21 7.264 6.37 10.94 6.798 11.565 21.225 28.064 32.664 27.8v-37.918c-13.017 0-26.028-.279-39.035-.822zm78.081 0c-13.017.542-26.028.82-39.033.82v37.918c11.44.264 25.866-16.235 32.664-27.8a1650.11 1650.11 0 006.37-10.938z" color="#000" font-weight="400" font-family="sans-serif" overflow="visible"/><path d="M602.501 303.206c-9.5 15.437 2.39 26.797 16.332 25.367 10.579-1.086 17.442-8.67 19.46-19.46 2.642-14.134-2.321-24.865-7.645-34.054-4.584-7.912-15.492-14.171-15.985-1.737-1.014 25.62-6.995 21.487-12.162 29.884zM573.46 236.224c7.865-.45 11.766-1.758 19.697-4.373 3.744-1.234 5.263-3.339 6.866-6.5 12.57-24.8 38.584-48.006 55.276-73.304 9.738-14.76 20.925-12.628 30.579-15.984 6.448-2.242 7.115 2.968 2.78 4.865-9.975 4.363-23.658 4.629-28.375 14.103-13.638 27.39-37.836 47.193-55.634 76.94-4.814 8.046-15.806 12.029-27.715 15.373-13.938 3.915-13.117-10.568-3.474-11.12z"/><path d="M1071.4 711.42c23.391-.098 46.955 3.49 67.275 13.924 19.373 9.947 44.747 22.945 10.81 66.834-13.967 18.064-28.455 35.2-51.107 50.125-21.784 14.352-43.527 27.612-74.697 22.605-10.154 24.02-28.678 46.126-80.594 50.127-29.835 2.3-57.399-5.92-74.697-18.676-53.512 5.741-134.24-60.103-133.668-99.267.141-9.69 2.474-17.416 6.88-27.028 1.984-4.324 6.53-4.679 10.811-4.914 64.363-3.526 132.765-15.524 236.868-41.771 22.251-5.61 52.044-11.833 82.119-11.96zm.084 2.965c-23.947-.05-49.54 3.664-77.78 10.959-9.225 2.383-13.317 7.249-3.439 10.32 4.513 1.403 10.044 2.88 16.46 2.703 10.734-.296 21.889-.963 33.911-.492 4.011.157 7.903-.72 12.531-1.719 3.506-.756 33.811-2.003 51.844-.492 11.561.969 15.944 3.631 21.87 2.211 4.352-1.043 9.305-6.425 1.966-11.057-11.695-7.38-27.087-10.715-41.035-11.795a217.507 217.507 0 00-16.328-.638zm-94.496 17.308c-1.028 0-2.17.164-3.432.532-7.588 1.035-21.763 3.884-22.605 11.302-6.186 5.242-11.281 9.009-14.745 13.268 5.73-.527 11.769-1.848 26.293-.49 3.932-.14 7.862.667 11.793-3.196 2.382-3.393 3.869-6.428 9.338-11.056 2.152-2.307.553-10.354-6.642-10.36zm-31.936 7.903c-49.862 12.806-101.727 25.028-173.473 31.45-2.741 1.639-2.817 3.277 0 4.915 29.64 6.915 61.486 6.106 92.88 6.88 9.992-.576 19.986-.327 29.978-4.423 25.288-9.063 38.01-20.638 49.633-32.434 6.805-4.62 6.208-6.394.982-6.388zm82.145.017c-7.603-.072-14.544 1.089-20.676 1.932 11.601 3.451 27.693 13.296 43.783 29.537 5.13 5.178 13.057 4.475 20.502 5.211 8.063.797 12.22-2.32 7.644-9.195-6.183-9.292-13.334-12.3-20.128-17.604-5.781-4.513-14.23-8.135-23.307-9.34a63.924 63.924 0 00-7.818-.54zm-34.914 1.221c-2.777 0-4.636.635-5.917 1.752-4.697 4.095-10.082 9.203-12.857 14.943-2.699 5.583 9.097 8.17 16.68 7.992 16.484-.387 27.516.056 40.308 2.084 10.642 1.688 11.232-2.054 5.213-6.949-8.73-7.1-18.712-13.422-27.45-16.332-7.32-2.437-12.408-3.49-15.977-3.49zm-21.553 17.39c-12.751.601-33.652-.88-38.92 3.128-20.251 15.407-31.678 17.257-46.563 22.238 7.605 4.412 53.403-2.254 79.922 1.738 5.407.176 10-.87 13.553-3.474 3.475-2.549 4.75-8.687 4.518-14.942-8.762-.186-12.498-5.601-12.51-8.687zm70.15 6.065c2.46 9.288-17.191 2.714-27.006 2.461-10.27-.265-20.328-.224-29.16.162 1.019 17.883-10.055 19.807-19.021 20.106 6.891 4.381 6.399 8.344 5.406 22.115 21.114.71 41.078-.3 63.392 2.21 5.003.564 9.806 2.518 16.22-3.685 7.09-6.857 12.38-13.42 17.445-24.816 1.393-3.136.983-5.633-2.213-5.653-15.637-.094-18.084-7.455-25.063-12.9zm-285.887 9.736c-4.522-.107-2.892 11.44 5.504 12.694 14.55 2.17 32.372 2.303 43.436 7.297 21.258 10.62 45.271 8.535 67.414 7.992 3.169-.078 3.827-1.227 4.865-2.78 2.533-3.785 1.737-13.552 1.737-13.552-47.552.523-95.284-2.681-121.97-11.467a3.423 3.423 0 00-.986-.184zm126.143 11.159c.689 8.785-1.04 12.131-2.924 15.129 25.418 5.713 62.6 15.914 80.11 26.654l4.763-5.153c6.634-7.176 7.696-17.703 6.602-27.103-.233-2.003-1.291-3.787-4.865-5.908-8.82-5.234-76.691.46-83.686-3.62zm-133.941.045c-2.216.064-3.424 1.562-3.03 3.574 1.712 8.73-8.58 5.676-4.517 14.248 12.997-2.092 24.866 1.51 36.834 4.517 9.386 2.358 21.757 10.338 44.826 9.034 67.943-3.844 90.74 11.255 136.564 13.205-4.956-6.618-46.012-19.433-80.271-27.104-7.34 3.6-22.856 1.865-34.053 1.736-35.03-1.793-40.001-10.738-54.209-12.162-15.347-1.537-29.61-3.08-39.613-6.601-.94-.331-1.793-.47-2.531-.447zm-.424 19.21c-5.421-.132-9.14 2.986-2.084 5.387 9.89 3.367 8.972 4.668 29.363 10.598 20.646 5.78 41.235 12.224 58.725 21.197 10.49 5.382 67.471 7.184 112.935 23.63-10.197-10.788-39.997-37.835-55.6-41.698-6.824-1.69-21.86-4.08-59.767-4.17-16.025-.038-27.743.009-48.127-7.47-8.737-3.207-25.728-7.236-35.445-7.474zm-5.66 6.413c1.132 3.114 1.688 6.028 6.388 8.845 8.85 5.304 48.292 16.187 83.051 34.893.784-2.855 1.926-4.996 1.475-10.32-29.8-16.499-63.184-20.634-90.914-33.418zm2.457 9.091c25.828 41.803 87.123 77.798 123.623 74.235-3.382-15.74-20.83-34.212-79.395-56.79-14.721-5.674-30.447-11.487-44.228-17.445z" fill="url(#n)" transform="translate(-100.423 -358.068)"/></svg>
