<svg xmlns="http://www.w3.org/2000/svg" viewBox="0 0 100 100"><path d="M4.65 93.704v-4.052q4.707-.06 5.84-.358 1.191-.357 2.145-1.251 1.013-.954 2.86-4.827 1.073-2.205 7.747-16.746l14.899-33.61q2.443-5.543 10.428-24.672h3.874L77.889 67.96q6.198 14.54 8.224 18.235 1.132 2.086 2.443 2.742 1.371.655 6.079.715v4.052q-9.297-.596-12.991-.596l-19.19.596v-4.052q6.675-.12 8.105-.417 1.43-.298 1.907-.835.537-.596.537-1.43 0-1.311-.835-3.397l-7.33-18.235H30.334l-6.496 15.315q-1.728 4.112-1.728 6.019 0 .834.477 1.37.655.775 2.026 1.073 2.205.477 7.747.537v4.052q-10.071-.536-15.077-.536-5.78 0-12.634.536zm27.71-33.432h30.095L47.556 24.337z" /></svg>
