<svg xmlns="http://www.w3.org/2000/svg" viewBox="0 0 100 100"><path d="M17.76 81.244v-2.872q3.337-.042 4.139-.253.844-.253 1.52-.887.718-.676 2.027-3.42.76-1.563 5.49-11.866L41.492 38.13q1.732-3.927 7.39-17.482h2.745l18.03 42.354q4.392 10.303 5.828 12.921.802 1.478 1.731 1.943.971.464 4.307.506v2.872q-6.587-.423-9.205-.423l-13.597.423v-2.872q4.73-.084 5.743-.295 1.013-.211 1.351-.592.38-.422.38-1.013 0-.929-.591-2.407L60.41 61.144H35.96l-4.602 10.852q-1.225 2.914-1.225 4.265 0 .591.338.971.465.55 1.436.76 1.562.338 5.49.38v2.872q-7.137-.38-10.684-.38-4.096 0-8.952.38zm19.636-23.69h21.325L48.164 32.092z"/></svg>
