<svg xmlns="http://www.w3.org/2000/svg" viewBox="0 0 100 100"><path d="M30.101 69.516v-1.76q2.045-.026 2.537-.155.517-.155.931-.544.44-.414 1.243-2.096.466-.958 3.364-7.273l6.47-14.597q1.062-2.407 4.53-10.715h1.683l11.051 25.96q2.692 6.314 3.572 7.919.492.906 1.061 1.19.595.285 2.64.311v1.76q-4.038-.259-5.642-.259l-8.334.26v-1.76q2.898-.053 3.52-.182.62-.13.828-.362.233-.26.233-.622 0-.569-.363-1.475l-3.183-7.92H41.256l-2.82 6.652q-.751 1.786-.751 2.614 0 .362.207.595.284.337.88.466.957.207 3.364.233v1.76q-4.374-.233-6.548-.233-2.51 0-5.487.233zm12.035-14.52h13.07l-6.47-15.606z"/></svg>
