<svg xmlns="http://www.w3.org/2000/svg" viewBox="0 0 100 100"><path d="M77.204 6.523l-7 5.57c6.107 7.571 9.76 17.21 9.76 27.727 0 10.356-3.542 19.863-9.483 27.382l7.002 5.569c7.184-9.065 11.48-20.517 11.48-32.951 0-12.594-4.408-24.178-11.759-33.297zM63.28 17.602l-7 5.57c3.685 4.53 5.89 10.32 5.89 16.648 0 6.167-2.094 11.824-5.613 16.303l7 5.57c4.764-6.025 7.613-13.627 7.613-21.873 0-8.405-2.961-16.14-7.89-22.218zm-27.485 4.444A17.773 17.773 0 0018.04 39.819a17.773 17.773 0 0017.773 17.773A17.773 17.773 0 0053.586 39.82a17.773 17.773 0 00-17.773-17.773 17.773 17.773 0 00-.019 0zM22.45 64.63a11.864 11.864 0 00-11.884 11.52h-.01v13.557a2.639 2.639 0 002.645 2.645h45.226a2.639 2.639 0 002.644-2.645V76.152h-.01A11.864 11.864 0 0049.176 64.63H22.45z"/></svg>
