<svg xmlns="http://www.w3.org/2000/svg" viewBox="0 0 100 100"><path d="M28.374 28.779A21.515 21.515 0 006.95 50.247a43.164 43.164 0 00-.001.133 43.164 43.164 0 0043.164 43.164A43.164 43.164 0 0093.277 50.38a43.164 43.164 0 000-.133h-.033a21.632 21.515 0 01-21.632 21.467 21.632 21.515 0 01-.091 0 21.632 21.515 0 01-21.542-21.467 21.515 21.515 0 00-21.514-21.468 21.515 21.515 0 00-.09 0z"/><path d="M50.113 7.216A43.164 43.164 0 006.95 50.246h.001A21.515 21.515 0 0128.374 28.78a21.515 21.515 0 01.09 0A21.515 21.515 0 0149.98 50.247a21.632 21.515 0 0021.542 21.467 21.632 21.515 0 00.09 0 21.632 21.515 0 0021.633-21.467h.032a43.164 43.164 0 00-43.163-43.03z" fill="#fff"/></svg>
